<?xml version="1.0" standalone="no"?>
<!DOCTYPE svg PUBLIC "-//W3C//DTD SVG 20010904//EN"
 "http://www.w3.org/TR/2001/REC-SVG-20010904/DTD/svg10.dtd">
<svg version="1.0" xmlns="http://www.w3.org/2000/svg"
 width="500.000000pt" height="500.000000pt" viewBox="0 0 500.000000 500.000000"
 preserveAspectRatio="xMidYMid meet">
<metadata>
Created by potrace 1.14, written by Peter Selinger 2001-2017
</metadata>
<g transform="translate(0.000000,500.000000) scale(0.100000,-0.100000)"
fill="#000000" stroke="none">
<path d="M0 2500 l0 -2500 2500 0 2500 0 0 2500 0 2500 -2500 0 -2500 0 0
-2500z m2106 1405 c59 -17 130 -65 146 -100 12 -28 -2 -73 -32 -100 -17 -15
-21 -14 -69 20 -113 81 -258 86 -356 11 -42 -33 -58 -33 -84 0 -47 60 -34 88
69 143 94 50 206 59 326 26z m-3 -218 c58 -34 63 -50 29 -88 l-27 -30 -58 26
c-67 31 -119 29 -176 -6 -38 -23 -51 -17 -71 32 -16 39 -3 54 72 81 74 26 171
20 231 -15z m-86 -149 c42 -39 21 -110 -37 -123 -59 -13 -107 52 -75 101 29
45 77 55 112 22z m23 -332 c0 -96 3 -181 6 -190 6 -14 76 -16 698 -16 657 0
693 -1 733 -19 26 -12 52 -35 69 -61 25 -37 29 -54 32 -136 l4 -94 70 0 c74 0
103 -10 130 -44 16 -19 18 -61 18 -487 l0 -466 -24 -26 c-13 -14 -35 -29 -48
-32 -12 -3 -531 -4 -1151 -3 l-1129 3 -29 33 -29 32 0 460 0 460 29 32 29 33
986 3 986 2 0 59 c0 33 -3 66 -6 75 -6 14 -76 16 -697 16 -683 0 -691 0 -735
21 -26 13 -54 38 -70 62 -27 40 -27 42 -30 249 l-3 208 80 0 81 0 0 -174z
m416 -1703 c9 -27 20 -51 24 -56 3 -4 14 18 24 48 16 50 20 55 47 55 19 0 29
-5 29 -15 0 -8 -4 -15 -9 -15 -12 0 -2 -151 10 -164 17 -19 9 -26 -31 -26 -29
0 -40 4 -40 15 0 8 7 15 15 15 12 0 15 14 15 62 0 66 -10 68 -30 5 -16 -50
-39 -45 -62 13 l-17 45 0 -61 c-1 -46 3 -63 14 -68 29 -11 15 -26 -25 -26 -28
0 -40 4 -40 14 0 8 5 18 10 21 6 3 10 40 10 81 0 43 -4 74 -10 74 -5 0 -10 7
-10 15 0 10 10 15 29 15 26 0 31 -6 47 -47z m242 30 c2 -7 -3 -13 -12 -13 -12
0 -16 -10 -16 -37 l0 -37 35 34 c24 23 32 37 25 45 -5 7 -7 15 -3 18 8 9 68 9
76 1 4 -4 -14 -25 -39 -47 l-45 -39 26 -24 c14 -13 25 -30 25 -39 0 -8 9 -23
20 -32 26 -23 25 -35 -2 -31 -15 2 -30 17 -44 43 -15 30 -26 40 -45 40 -33 0
-41 -50 -10 -58 40 -10 22 -27 -29 -27 -38 0 -50 4 -50 15 0 8 7 15 15 15 12
0 15 16 15 80 0 64 -3 80 -15 80 -8 0 -15 7 -15 16 0 12 9 14 42 12 23 -2 43
-9 46 -15z m-583 -304 c3 -4 -10 -5 -28 -2 -26 4 -36 1 -41 -12 -4 -13 3 -20
35 -33 34 -13 40 -19 37 -41 -2 -21 -9 -27 -35 -29 -18 -2 -41 2 -50 8 -15 9
-11 10 18 5 26 -4 40 -1 49 10 11 13 7 18 -29 32 -32 12 -41 21 -41 40 0 35
67 52 85 22z m285 -49 l0 -70 -35 0 c-28 0 -38 5 -47 25 -16 35 13 79 48 71
21 -6 24 -3 24 19 0 14 2 25 5 25 3 0 5 -31 5 -70z m760 0 l0 -70 -33 0 c-18
0 -38 5 -45 12 -29 29 1 95 39 85 13 -4 19 0 19 12 0 16 8 31 17 31 2 0 3 -31
3 -70z m-485 40 c4 -12 1 -27 -5 -35 -9 -10 -7 -21 5 -44 8 -17 11 -31 6 -31
-6 0 -16 12 -23 28 -7 15 -23 28 -36 30 -19 3 -22 -1 -22 -27 0 -17 -4 -31
-10 -31 -6 0 -10 28 -10 65 l0 65 44 0 c36 0 46 -4 51 -20z m-497 -7 c12 -12
13 -18 4 -21 -18 -6 -15 -59 6 -72 15 -9 14 -10 -8 -8 -21 3 -25 9 -28 41 -2
20 -7 37 -13 37 -5 0 -4 9 3 20 15 24 15 24 36 3z m54 -53 c2 -23 8 -35 18
-35 10 0 16 12 18 35 6 58 22 60 22 1 l0 -52 -37 3 c-38 3 -38 3 -41 53 -4 57
14 53 20 -5z m217 13 l19 -38 18 40 c9 22 19 35 21 28 7 -20 -50 -128 -70
-131 -17 -3 -17 -2 2 17 19 19 20 24 7 49 -17 35 -29 72 -22 72 3 0 14 -17 25
-37z m325 21 c25 -24 19 -34 -19 -34 -19 0 -35 -4 -35 -9 0 -17 29 -33 51 -26
14 5 19 4 15 -4 -12 -19 -64 -13 -76 8 -14 28 -13 38 10 61 24 24 34 25 54 4z
m90 10 c25 -10 19 -22 -8 -17 -18 4 -26 0 -31 -17 -9 -27 12 -52 36 -45 11 4
19 2 19 -4 0 -20 -59 -12 -70 8 -14 28 -13 38 10 61 22 22 22 22 44 14z m95
-4 c25 -13 32 -35 21 -65 -10 -26 -42 -33 -69 -16 -20 13 -17 62 5 78 21 16
21 16 43 3z m101 -1 c0 -5 -7 -9 -15 -9 -11 0 -15 -11 -15 -40 0 -22 -4 -40
-10 -40 -5 0 -10 21 -10 48 0 43 2 47 25 48 14 1 25 -2 25 -7z"/>
<path d="M1940 3155 c0 -178 7 -211 53 -237 17 -10 180 -14 728 -18 677 -5
708 -6 728 -24 19 -17 21 -30 21 -133 l0 -113 -999 0 -1000 0 -15 -22 c-24
-34 -24 -862 0 -896 l15 -22 1124 0 c1008 0 1125 2 1139 16 14 14 16 69 16
454 0 385 -2 440 -16 454 -12 12 -38 16 -115 16 l-99 0 0 110 c0 120 -11 159
-53 182 -17 10 -181 14 -730 18 l-709 5 -19 24 c-17 21 -19 41 -19 187 l0 164
-25 0 -25 0 0 -165z m-65 -725 l0 -85 -152 -3 -153 -3 0 84 c0 46 3 87 7 91 4
3 72 5 152 4 l146 -3 0 -85z m290 0 l0 -85 -95 0 -95 0 -3 74 c-2 41 -1 80 2
88 4 11 27 13 98 11 l93 -3 0 -85z m290 0 l0 -85 -89 -3 c-65 -2 -92 1 -98 10
-9 15 -11 129 -2 153 5 13 21 15 98 13 l91 -3 0 -85z m290 0 l0 -85 -89 -3
c-65 -2 -92 1 -98 10 -11 19 -10 126 3 149 9 18 19 19 97 17 l87 -3 0 -85z
m295 71 c11 -21 14 -120 4 -145 -5 -13 -24 -16 -100 -16 l-94 0 0 83 c0 46 3
87 7 90 3 4 44 7 89 7 72 0 85 -3 94 -19z m294 3 c9 -23 7 -137 -2 -152 -6 -9
-33 -12 -98 -10 l-89 3 -3 74 c-2 41 -1 80 2 88 8 21 182 19 190 -3z m291 -74
l0 -85 -95 0 -95 0 -3 74 c-2 41 -1 80 2 88 4 11 27 13 98 11 l93 -3 0 -85z
m-1830 -270 l0 -85 -110 0 -110 0 -3 74 c-2 41 -1 80 2 88 4 11 29 13 113 11
l108 -3 0 -85z m279 68 c9 -33 7 -131 -2 -146 -6 -9 -33 -12 -98 -10 l-89 3
-3 74 c-2 41 -1 80 2 88 4 9 29 13 95 13 84 0 89 -1 95 -22z m271 -68 l0 -85
-91 -3 c-104 -3 -104 -4 -104 91 0 82 7 88 108 85 l87 -3 0 -85z m280 0 l0
-85 -89 -3 c-65 -2 -92 1 -98 10 -10 16 -11 152 -1 162 4 4 48 5 98 4 l90 -3
0 -85z m280 0 l0 -85 -95 0 -95 0 -3 74 c-2 41 -1 80 2 88 4 11 27 13 98 11
l93 -3 0 -85z m279 74 c9 -23 7 -137 -2 -152 -6 -9 -33 -12 -98 -10 l-89 3 -3
74 c-2 41 -1 80 2 88 8 21 182 19 190 -3z m441 -7 c3 -12 5 -52 3 -87 l-3 -65
-180 0 -180 0 -3 74 c-2 41 -1 80 2 88 4 10 43 13 180 13 174 0 176 0 181 -23z
m-1861 -263 c11 -28 6 -130 -7 -148 -10 -14 -26 -16 -97 -14 l-85 3 -3 88 -3
87 95 0 c76 0 95 -3 100 -16z m271 -74 l0 -85 -85 -3 c-101 -3 -110 4 -110 89
0 91 -1 90 104 87 l91 -3 0 -85z m919 74 c9 -23 7 -137 -2 -152 -7 -9 -94 -12
-403 -10 l-394 3 -3 74 c-2 41 -1 80 2 88 4 10 79 13 400 13 350 0 395 -2 400
-16z m291 -74 l0 -85 -89 -3 c-65 -2 -92 1 -98 10 -9 15 -11 129 -2 153 5 13
21 15 98 13 l91 -3 0 -85z m383 20 c5 -115 10 -111 -126 -108 l-117 3 -3 74
c-2 41 -1 80 2 88 4 11 31 13 123 11 l118 -3 3 -65z"/>
<path d="M1622 2428 l3 -33 98 -3 97 -3 0 36 0 35 -101 0 -100 0 3 -32z"/>
<path d="M2030 2425 c0 -34 1 -35 40 -35 39 0 40 1 40 35 0 34 -1 35 -40 35
-39 0 -40 -1 -40 -35z"/>
<path d="M2320 2425 c0 -34 1 -35 40 -35 39 0 40 1 40 35 0 34 -1 35 -40 35
-39 0 -40 -1 -40 -35z"/>
<path d="M2610 2424 l0 -35 43 3 c39 3 42 5 45 36 3 32 3 32 -42 32 -46 0 -46
0 -46 -36z"/>
<path d="M2902 2428 c3 -31 6 -33 46 -36 l42 -3 0 35 c0 36 0 36 -46 36 -45 0
-45 0 -42 -32z"/>
<path d="M3200 2425 c0 -34 1 -35 40 -35 39 0 40 1 40 35 0 34 -1 35 -40 35
-39 0 -40 -1 -40 -35z"/>
<path d="M3490 2425 c0 -34 1 -35 40 -35 39 0 40 1 40 35 0 34 -1 35 -40 35
-39 0 -40 -1 -40 -35z"/>
<path d="M1622 2158 c3 -33 4 -33 61 -36 l57 -3 0 36 0 35 -61 0 -60 0 3 -32z"/>
<path d="M1932 2158 c3 -31 6 -33 46 -36 l42 -3 0 35 c0 36 0 36 -46 36 -45 0
-45 0 -42 -32z"/>
<path d="M2210 2154 l0 -35 43 3 c39 3 42 5 45 36 3 32 3 32 -42 32 -46 0 -46
0 -46 -36z"/>
<path d="M2490 2155 c0 -34 1 -35 40 -35 39 0 40 1 40 35 0 34 -1 35 -40 35
-39 0 -40 -1 -40 -35z"/>
<path d="M2770 2155 c0 -34 1 -35 40 -35 39 0 40 1 40 35 0 34 -1 35 -40 35
-39 0 -40 -1 -40 -35z"/>
<path d="M3050 2155 c0 -34 1 -35 40 -35 39 0 40 1 40 35 0 34 -1 35 -40 35
-39 0 -40 -1 -40 -35z"/>
<path d="M3320 2155 l0 -35 125 0 125 0 0 35 0 35 -125 0 -125 0 0 -35z"/>
<path d="M1627 1923 c-4 -3 -7 -19 -7 -35 0 -27 2 -28 45 -28 45 0 45 0 45 35
0 34 -1 35 -38 35 -21 0 -42 -3 -45 -7z"/>
<path d="M1900 1896 c0 -36 0 -36 46 -36 45 0 45 0 42 33 -3 30 -6 32 -45 35
l-43 3 0 -35z"/>
<path d="M2210 1895 l0 -35 345 0 345 0 0 35 0 35 -345 0 -345 0 0 -35z"/>
<path d="M3110 1895 c0 -34 1 -35 40 -35 39 0 40 1 40 35 0 34 -1 35 -40 35
-39 0 -40 -1 -40 -35z"/>
<path d="M3437 1923 c-4 -3 -7 -19 -7 -35 l0 -28 70 0 70 0 0 35 0 35 -63 0
c-35 0 -67 -3 -70 -7z"/>
<path d="M2333 1174 c-7 -18 6 -45 25 -52 15 -5 33 33 26 52 -8 21 -43 21 -51
0z"/>
<path d="M3097 1184 c-13 -14 -7 -52 10 -58 22 -9 35 6 31 35 -3 23 -27 37
-41 23z"/>
<path d="M2600 1205 c0 -23 4 -26 28 -23 19 2 27 9 27 23 0 14 -8 21 -27 23
-24 3 -28 0 -28 -23z"/>
<path d="M2725 1180 c-4 -6 5 -10 19 -10 14 0 26 5 26 10 0 6 -9 10 -19 10
-11 0 -23 -4 -26 -10z"/>
<path d="M2915 1169 c-5 -14 -1 -27 9 -37 15 -15 17 -15 32 0 20 20 10 58 -16
58 -10 0 -22 -10 -25 -21z"/>
</g>
</svg>
